<svg width="20" height="20" viewBox="0 0 20 20" fill="none" xmlns="http://www.w3.org/2000/svg">
<path d="M10.0001 9.97595e-05C8.93629 -0.0497943 7.87378 0.122981 6.88058 0.507366C5.88738 0.891751 4.98539 1.47928 4.23233 2.23233C3.47928 2.98539 2.89175 3.88738 2.50737 4.88058C2.12298 5.87378 1.95021 6.93629 2.0001 8.0001C2.0001 10.5201 4.0001 13.0001 5.0001 14.0001C6.0001 15.0001 10.0001 20.0001 10.0001 20.0001C10.0001 20.0001 14.0001 15.0001 15.0001 14.0001C16.0001 13.0001 18.0001 10.5201 18.0001 8.0001C18.05 6.93629 17.8772 5.87378 17.4928 4.88058C17.1084 3.88738 16.5209 2.98539 15.7679 2.23233C15.0148 1.47928 14.1128 0.891751 13.1196 0.507366C12.1264 0.122981 11.0639 -0.0497943 10.0001 9.97595e-05ZM10.0001 11.2501C9.35731 11.2501 8.72896 11.0595 8.1945 10.7024C7.66004 10.3453 7.24348 9.83768 6.99749 9.24382C6.75151 8.64996 6.68715 7.99649 6.81255 7.36606C6.93795 6.73562 7.24748 6.15652 7.702 5.702C8.15652 5.24748 8.73562 4.93795 9.36606 4.81255C9.99649 4.68715 10.65 4.75151 11.2438 4.99749C11.8377 5.24348 12.3453 5.66004 12.7024 6.1945C13.0595 6.72896 13.2501 7.35731 13.2501 8.0001C13.2501 8.4269 13.166 8.84951 13.0027 9.24382C12.8394 9.63813 12.6 9.99641 12.2982 10.2982C11.9964 10.6 11.6381 10.8394 11.2438 11.0027C10.8495 11.166 10.4269 11.2501 10.0001 11.2501Z" fill="black"/>
<rect x="5" y="3" width="10" height="10" rx="5" fill="white"/>
<path d="M7.0835 10.5001V6.56259L10.0002 4.57959L12.9168 6.56259V10.5001H10.7535V8.10609H9.24683V10.5001H7.0835Z" fill="#1E1E1E"/>
</svg>
