<svg width="24" height="24" viewBox="0 0 24 24" fill="none" xmlns="http://www.w3.org/2000/svg">
<path opacity="0.5" d="M12.5 14.5H11.5C11.2348 14.5 10.9804 14.3946 10.7929 14.2071C10.6054 14.0196 10.5 13.7652 10.5 13.5C10.5 13.2348 10.6054 12.9804 10.7929 12.7929C10.9804 12.6054 11.2348 12.5 11.5 12.5H12.5C12.7652 12.5 13.0196 12.6054 13.2071 12.7929C13.3946 12.9804 13.5 13.2348 13.5 13.5C13.5 13.7652 13.3946 14.0196 13.2071 14.2071C13.0196 14.3946 12.7652 14.5 12.5 14.5ZM12.5 18.5H11.5C11.2348 18.5 10.9804 18.3946 10.7929 18.2071C10.6054 18.0196 10.5 17.7652 10.5 17.5C10.5 17.2348 10.6054 16.9804 10.7929 16.7929C10.9804 16.6054 11.2348 16.5 11.5 16.5H12.5C12.7652 16.5 13.0196 16.6054 13.2071 16.7929C13.3946 16.9804 13.5 17.2348 13.5 17.5C13.5 17.7652 13.3946 18.0196 13.2071 18.2071C13.0196 18.3946 12.7652 18.5 12.5 18.5ZM7.5 14.5H6.5C6.23478 14.5 5.98043 14.3946 5.79289 14.2071C5.60536 14.0196 5.5 13.7652 5.5 13.5C5.5 13.2348 5.60536 12.9804 5.79289 12.7929C5.98043 12.6054 6.23478 12.5 6.5 12.5H7.5C7.76522 12.5 8.01957 12.6054 8.20711 12.7929C8.39464 12.9804 8.5 13.2348 8.5 13.5C8.5 13.7652 8.39464 14.0196 8.20711 14.2071C8.01957 14.3946 7.76522 14.5 7.5 14.5ZM7.5 18.5H6.5C6.23478 18.5 5.98043 18.3946 5.79289 18.2071C5.60536 18.0196 5.5 17.7652 5.5 17.5C5.5 17.2348 5.60536 16.9804 5.79289 16.7929C5.98043 16.6054 6.23478 16.5 6.5 16.5H7.5C7.76522 16.5 8.01957 16.6054 8.20711 16.7929C8.39464 16.9804 8.5 17.2348 8.5 17.5C8.5 17.7652 8.39464 18.0196 8.20711 18.2071C8.01957 18.3946 7.76522 18.5 7.5 18.5ZM17.5 14.5H16.5C16.2348 14.5 15.9804 14.3946 15.7929 14.2071C15.6054 14.0196 15.5 13.7652 15.5 13.5C15.5 13.2348 15.6054 12.9804 15.7929 12.7929C15.9804 12.6054 16.2348 12.5 16.5 12.5H17.5C17.7652 12.5 18.0196 12.6054 18.2071 12.7929C18.3946 12.9804 18.5 13.2348 18.5 13.5C18.5 13.7652 18.3946 14.0196 18.2071 14.2071C18.0196 14.3946 17.7652 14.5 17.5 14.5ZM17.5 18.5H16.5C16.2348 18.5 15.9804 18.3946 15.7929 18.2071C15.6054 18.0196 15.5 17.7652 15.5 17.5C15.5 17.2348 15.6054 16.9804 15.7929 16.7929C15.9804 16.6054 16.2348 16.5 16.5 16.5H17.5C17.7652 16.5 18.0196 16.6054 18.2071 16.7929C18.3946 16.9804 18.5 17.2348 18.5 17.5C18.5 17.7652 18.3946 18.0196 18.2071 18.2071C18.0196 18.3946 17.7652 18.5 17.5 18.5Z" fill="#F24822"/>
<path d="M13.5 7H13V6.5C13 6.23478 12.8946 5.98043 12.7071 5.79289C12.5196 5.60536 12.2652 5.5 12 5.5C11.7348 5.5 11.4804 5.60536 11.2929 5.79289C11.1054 5.98043 11 6.23478 11 6.5V7H10.5C10.2348 7 9.98043 7.10536 9.79289 7.29289C9.60536 7.48043 9.5 7.73478 9.5 8C9.5 8.26522 9.60536 8.51957 9.79289 8.70711C9.98043 8.89464 10.2348 9 10.5 9H11V9.5C11 9.76522 11.1054 10.0196 11.2929 10.2071C11.4804 10.3946 11.7348 10.5 12 10.5C12.2652 10.5 12.5196 10.3946 12.7071 10.2071C12.8946 10.0196 13 9.76522 13 9.5V9H13.5C13.7652 9 14.0196 8.89464 14.2071 8.70711C14.3946 8.51957 14.5 8.26522 14.5 8C14.5 7.73478 14.3946 7.48043 14.2071 7.29289C14.0196 7.10536 13.7652 7 13.5 7Z" fill="#F24822"/>
<path opacity="0.25" d="M21.5 6.5H18.5V2.5C18.5 2.23478 18.3946 1.98043 18.2071 1.79289C18.0196 1.60536 17.7652 1.5 17.5 1.5H6.5C6.23478 1.5 5.98043 1.60536 5.79289 1.79289C5.60536 1.98043 5.5 2.23478 5.5 2.5V6.5H2.5C2.23478 6.5 1.98043 6.60536 1.79289 6.79289C1.60536 6.98043 1.5 7.23478 1.5 7.5V21.5C1.5 21.7652 1.60536 22.0196 1.79289 22.2071C1.98043 22.3946 2.23478 22.5 2.5 22.5H21.5C21.7652 22.5 22.0196 22.3946 22.2071 22.2071C22.3946 22.0196 22.5 21.7652 22.5 21.5V7.5C22.5 7.23478 22.3946 6.98043 22.2071 6.79289C22.0196 6.60536 21.7652 6.5 21.5 6.5ZM7.5 18.5H6.5C6.23478 18.5 5.98043 18.3946 5.79289 18.2071C5.60536 18.0196 5.5 17.7652 5.5 17.5C5.5 17.2348 5.60536 16.9804 5.79289 16.7929C5.98043 16.6054 6.23478 16.5 6.5 16.5H7.5C7.76522 16.5 8.01957 16.6054 8.20711 16.7929C8.39464 16.9804 8.5 17.2348 8.5 17.5C8.5 17.7652 8.39464 18.0196 8.20711 18.2071C8.01957 18.3946 7.76522 18.5 7.5 18.5ZM7.5 14.5H6.5C6.23478 14.5 5.98043 14.3946 5.79289 14.2071C5.60536 14.0196 5.5 13.7652 5.5 13.5C5.5 13.2348 5.60536 12.9804 5.79289 12.7929C5.98043 12.6054 6.23478 12.5 6.5 12.5H7.5C7.76522 12.5 8.01957 12.6054 8.20711 12.7929C8.39464 12.9804 8.5 13.2348 8.5 13.5C8.5 13.7652 8.39464 14.0196 8.20711 14.2071C8.01957 14.3946 7.76522 14.5 7.5 14.5ZM12.5 18.5H11.5C11.2348 18.5 10.9804 18.3946 10.7929 18.2071C10.6054 18.0196 10.5 17.7652 10.5 17.5C10.5 17.2348 10.6054 16.9804 10.7929 16.7929C10.9804 16.6054 11.2348 16.5 11.5 16.5H12.5C12.7652 16.5 13.0196 16.6054 13.2071 16.7929C13.3946 16.9804 13.5 17.2348 13.5 17.5C13.5 17.7652 13.3946 18.0196 13.2071 18.2071C13.0196 18.3946 12.7652 18.5 12.5 18.5ZM12.5 14.5H11.5C11.2348 14.5 10.9804 14.3946 10.7929 14.2071C10.6054 14.0196 10.5 13.7652 10.5 13.5C10.5 13.2348 10.6054 12.9804 10.7929 12.7929C10.9804 12.6054 11.2348 12.5 11.5 12.5H12.5C12.7652 12.5 13.0196 12.6054 13.2071 12.7929C13.3946 12.9804 13.5 13.2348 13.5 13.5C13.5 13.7652 13.3946 14.0196 13.2071 14.2071C13.0196 14.3946 12.7652 14.5 12.5 14.5ZM13.5 9H13V9.5C13 9.76522 12.8946 10.0196 12.7071 10.2071C12.5196 10.3946 12.2652 10.5 12 10.5C11.7348 10.5 11.4804 10.3946 11.2929 10.2071C11.1054 10.0196 11 9.76522 11 9.5V9H10.5C10.2348 9 9.98043 8.89464 9.79289 8.70711C9.60536 8.51957 9.5 8.26522 9.5 8C9.5 7.73478 9.60536 7.48043 9.79289 7.29289C9.98043 7.10536 10.2348 7 10.5 7H11V6.5C11 6.23478 11.1054 5.98043 11.2929 5.79289C11.4804 5.60536 11.7348 5.5 12 5.5C12.2652 5.5 12.5196 5.60536 12.7071 5.79289C12.8946 5.98043 13 6.23478 13 6.5V7H13.5C13.7652 7 14.0196 7.10536 14.2071 7.29289C14.3946 7.48043 14.5 7.73478 14.5 8C14.5 8.26522 14.3946 8.51957 14.2071 8.70711C14.0196 8.89464 13.7652 9 13.5 9ZM17.5 18.5H16.5C16.2348 18.5 15.9804 18.3946 15.7929 18.2071C15.6054 18.0196 15.5 17.7652 15.5 17.5C15.5 17.2348 15.6054 16.9804 15.7929 16.7929C15.9804 16.6054 16.2348 16.5 16.5 16.5H17.5C17.7652 16.5 18.0196 16.6054 18.2071 16.7929C18.3946 16.9804 18.5 17.2348 18.5 17.5C18.5 17.7652 18.3946 18.0196 18.2071 18.2071C18.0196 18.3946 17.7652 18.5 17.5 18.5ZM17.5 14.5H16.5C16.2348 14.5 15.9804 14.3946 15.7929 14.2071C15.6054 14.0196 15.5 13.7652 15.5 13.5C15.5 13.2348 15.6054 12.9804 15.7929 12.7929C15.9804 12.6054 16.2348 12.5 16.5 12.5H17.5C17.7652 12.5 18.0196 12.6054 18.2071 12.7929C18.3946 12.9804 18.5 13.2348 18.5 13.5C18.5 13.7652 18.3946 14.0196 18.2071 14.2071C18.0196 14.3946 17.7652 14.5 17.5 14.5Z" fill="#F24822"/>
</svg>
