<svg width="20" height="20" viewBox="0 0 20 20" fill="none" xmlns="http://www.w3.org/2000/svg">
<path d="M10.0001 9.97595e-05C8.93629 -0.0497943 7.87378 0.122981 6.88058 0.507366C5.88738 0.891751 4.98539 1.47928 4.23233 2.23233C3.47928 2.98539 2.89175 3.88738 2.50737 4.88058C2.12298 5.87378 1.95021 6.93629 2.0001 8.0001C2.0001 10.5201 4.0001 13.0001 5.0001 14.0001C6.0001 15.0001 10.0001 20.0001 10.0001 20.0001C10.0001 20.0001 14.0001 15.0001 15.0001 14.0001C16.0001 13.0001 18.0001 10.5201 18.0001 8.0001C18.05 6.93629 17.8772 5.87378 17.4928 4.88058C17.1084 3.88738 16.5209 2.98539 15.7679 2.23233C15.0148 1.47928 14.1128 0.891751 13.1196 0.507366C12.1264 0.122981 11.0639 -0.0497943 10.0001 9.97595e-05ZM10.0001 11.2501C9.35731 11.2501 8.72896 11.0595 8.1945 10.7024C7.66004 10.3453 7.24348 9.83768 6.99749 9.24382C6.75151 8.64996 6.68715 7.99649 6.81255 7.36606C6.93795 6.73562 7.24748 6.15652 7.702 5.702C8.15652 5.24748 8.73562 4.93795 9.36606 4.81255C9.99649 4.68715 10.65 4.75151 11.2438 4.99749C11.8377 5.24348 12.3453 5.66004 12.7024 6.1945C13.0595 6.72896 13.2501 7.35731 13.2501 8.0001C13.2501 8.4269 13.166 8.84951 13.0027 9.24382C12.8394 9.63813 12.6 9.99641 12.2982 10.2982C11.9964 10.6 11.6381 10.8394 11.2438 11.0027C10.8495 11.166 10.4269 11.2501 10.0001 11.2501Z" fill="#0D99FF"/>
<rect x="5" y="3" width="10" height="10" rx="5" fill="white"/>
<path d="M8.125 4.25C7.26562 4.25 6.5625 4.95312 6.5625 5.8125V9.5625C6.56285 9.92326 6.66711 10.2763 6.86279 10.5794C7.05847 10.8824 7.3373 11.1228 7.66594 11.2716L6.875 12.0625H7.6075L8.24219 11.4278C8.30469 11.4341 8.37281 11.4375 8.4375 11.4375H11.5625C11.6272 11.4375 11.6956 11.4337 11.7578 11.4278L12.3925 12.0625H13.125L12.3341 11.2716C12.6627 11.1228 12.9415 10.8824 13.1372 10.5794C13.3329 10.2763 13.4371 9.92326 13.4375 9.5625V5.8125C13.4375 4.95312 12.7344 4.25 11.875 4.25H8.125ZM8.125 4.875H11.875C12.2875 4.875 12.6369 5.13375 12.7637 5.5H7.23625C7.30075 5.31617 7.42109 5.15711 7.58044 5.04504C7.7398 4.93298 7.93019 4.87353 8.125 4.875ZM7.1875 6.125H9.6875V8H7.1875V6.125ZM10.3125 6.125H12.8125V8H10.3125V6.125ZM7.1875 8.625H12.8125V9.5625C12.8125 10.2559 12.2559 10.8125 11.5625 10.8125H8.4375C7.74406 10.8125 7.1875 10.2559 7.1875 9.5625V8.625ZM8.28125 9.25C8.15693 9.25 8.0377 9.29939 7.94979 9.38729C7.86189 9.4752 7.8125 9.59443 7.8125 9.71875C7.8125 9.84307 7.86189 9.9623 7.94979 10.0502C8.0377 10.1381 8.15693 10.1875 8.28125 10.1875C8.40557 10.1875 8.5248 10.1381 8.61271 10.0502C8.70061 9.9623 8.75 9.84307 8.75 9.71875C8.75 9.59443 8.70061 9.4752 8.61271 9.38729C8.5248 9.29939 8.40557 9.25 8.28125 9.25ZM11.7188 9.25C11.5944 9.25 11.4752 9.29939 11.3873 9.38729C11.2994 9.4752 11.25 9.59443 11.25 9.71875C11.25 9.84307 11.2994 9.9623 11.3873 10.0502C11.4752 10.1381 11.5944 10.1875 11.7188 10.1875C11.8431 10.1875 11.9623 10.1381 12.0502 10.0502C12.1381 9.9623 12.1875 9.84307 12.1875 9.71875C12.1875 9.59443 12.1381 9.4752 12.0502 9.38729C11.9623 9.29939 11.8431 9.25 11.7188 9.25Z" fill="#0D99FF"/>
</svg>
