<svg width="24" height="24" viewBox="0 0 24 24" fill="none" xmlns="http://www.w3.org/2000/svg">
<path d="M2 22V8.85001C2 7.43334 2.36667 6.20434 3.1 5.16301C3.83333 4.12167 4.86667 3.33401 6.2 2.80001C7.1 2.45001 8.05833 2.22934 9.075 2.13801C10.0917 2.04667 11.0667 2.00067 12 2.00001C12.9333 1.99934 13.9083 2.04534 14.925 2.13801C15.9417 2.23067 16.9 2.45134 17.8 2.80001C19.1333 3.33334 20.1667 4.12101 20.9 5.16301C21.6333 6.20501 22 7.43401 22 8.85001V22H2ZM9.1 20L10.6 18.5H13.35L14.85 20H16.5V19.5L15.45 18.45C16.1833 18.35 16.7917 18.021 17.275 17.463C17.7583 16.905 18 16.2507 18 15.5V9.00001C18 7.70001 17.4167 6.87501 16.25 6.52501C15.0833 6.17501 13.6667 6.00001 12 6.00001C10.4833 6.00001 9.10433 6.17501 7.863 6.52501C6.62167 6.87501 6.00067 7.70001 6 9.00001V15.5C6 16.25 6.24167 16.9043 6.725 17.463C7.20833 18.0217 7.81667 18.3507 8.55 18.45L7.5 19.5V20H9.1ZM7.5 13V9.00001H16.5V13H7.5ZM15.5 16.5C15.2167 16.5 14.9793 16.404 14.788 16.212C14.5967 16.02 14.5007 15.7827 14.5 15.5C14.4993 15.2173 14.5953 14.98 14.788 14.788C14.9807 14.596 15.218 14.5 15.5 14.5C15.782 14.5 16.0197 14.596 16.213 14.788C16.4063 14.98 16.502 15.2173 16.5 15.5C16.498 15.7827 16.402 16.0203 16.212 16.213C16.022 16.4057 15.7847 16.5013 15.5 16.5ZM8.5 16.5C8.21667 16.5 7.97933 16.404 7.788 16.212C7.59667 16.02 7.50067 15.7827 7.5 15.5C7.49933 15.2173 7.59533 14.98 7.788 14.788C7.98067 14.596 8.218 14.5 8.5 14.5C8.782 14.5 9.01967 14.596 9.213 14.788C9.40633 14.98 9.502 15.2173 9.5 15.5C9.498 15.7827 9.402 16.0203 9.212 16.213C9.022 16.4057 8.78467 16.5013 8.5 16.5Z" fill="#0D99FF"/>
</svg>
