<svg width="20" height="20" viewBox="0 0 20 20" fill="none" xmlns="http://www.w3.org/2000/svg">
<path d="M10.0001 9.97595e-05C8.93629 -0.0497943 7.87378 0.122981 6.88058 0.507366C5.88738 0.891751 4.98539 1.47928 4.23233 2.23233C3.47928 2.98539 2.89175 3.88738 2.50737 4.88058C2.12298 5.87378 1.95021 6.93629 2.0001 8.0001C2.0001 10.5201 4.0001 13.0001 5.0001 14.0001C6.0001 15.0001 10.0001 20.0001 10.0001 20.0001C10.0001 20.0001 14.0001 15.0001 15.0001 14.0001C16.0001 13.0001 18.0001 10.5201 18.0001 8.0001C18.05 6.93629 17.8772 5.87378 17.4928 4.88058C17.1084 3.88738 16.5209 2.98539 15.7679 2.23233C15.0148 1.47928 14.1128 0.891751 13.1196 0.507366C12.1264 0.122981 11.0639 -0.0497943 10.0001 9.97595e-05ZM10.0001 11.2501C9.35731 11.2501 8.72896 11.0595 8.1945 10.7024C7.66004 10.3453 7.24348 9.83768 6.99749 9.24382C6.75151 8.64996 6.68715 7.99649 6.81255 7.36606C6.93795 6.73562 7.24748 6.15652 7.702 5.702C8.15652 5.24748 8.73562 4.93795 9.36606 4.81255C9.99649 4.68715 10.65 4.75151 11.2438 4.99749C11.8377 5.24348 12.3453 5.66004 12.7024 6.1945C13.0595 6.72896 13.2501 7.35731 13.2501 8.0001C13.2501 8.4269 13.166 8.84951 13.0027 9.24382C12.8394 9.63813 12.6 9.99641 12.2982 10.2982C11.9964 10.6 11.6381 10.8394 11.2438 11.0027C10.8495 11.166 10.4269 11.2501 10.0001 11.2501Z" fill="#14AE5C"/>
<rect x="5" y="3" width="10" height="10" rx="5" fill="white"/>
<path d="M13.0399 11.3601C13.3934 11.3601 13.6799 11.0735 13.6799 10.7201C13.6799 10.3666 13.3934 10.0801 13.0399 10.0801C12.6864 10.0801 12.3999 10.3666 12.3999 10.7201C12.3999 11.0735 12.6864 11.3601 13.0399 11.3601Z" fill="#14AE5C"/>
<path d="M8.39977 11.3601C8.75323 11.3601 9.03977 11.0735 9.03977 10.7201C9.03977 10.3666 8.75323 10.0801 8.39977 10.0801C8.0463 10.0801 7.75977 10.3666 7.75977 10.7201C7.75977 11.0735 8.0463 11.3601 8.39977 11.3601Z" fill="#14AE5C"/>
<path d="M13.52 9.27996H8.52336L8.63008 9.10684C8.67584 9.0326 8.68928 8.94284 8.66736 8.85836L8.5632 8.4574L13.2005 8.21644C13.3763 8.20748 13.52 8.05596 13.52 7.87996V5.75996C13.52 5.58396 13.376 5.43996 13.2 5.43996H7.77904L7.71648 5.19948C7.69866 5.13089 7.65857 5.07016 7.60251 5.02681C7.54645 4.98346 7.47759 4.95995 7.40672 4.95996H6.32C6.23513 4.95996 6.15374 4.99368 6.09373 5.05369C6.03371 5.1137 6 5.19509 6 5.27996C6 5.36483 6.03371 5.44622 6.09373 5.50624C6.15374 5.56625 6.23513 5.59996 6.32 5.59996H7.15936L8.01376 8.88716L7.67776 9.43196C7.64791 9.48045 7.63153 9.53602 7.63032 9.59295C7.62911 9.64987 7.64311 9.70609 7.67088 9.7558C7.69861 9.80553 7.7391 9.84696 7.78818 9.87581C7.83726 9.90467 7.89315 9.91991 7.95008 9.91996H13.52C13.6049 9.91996 13.6863 9.88625 13.7463 9.82624C13.8063 9.76622 13.84 9.68483 13.84 9.59996C13.84 9.51509 13.8063 9.4337 13.7463 9.37369C13.6863 9.31367 13.6049 9.27996 13.52 9.27996Z" fill="#14AE5C"/>
</svg>
